<?xml version="1.0" standalone="no"?>
<!DOCTYPE svg PUBLIC "-//W3C//DTD SVG 1.1//EN" "http://www.w3.org/Graphics/SVG/1.1/DTD/svg11.dtd" >
<svg xmlns="http://www.w3.org/2000/svg">
<metadata></metadata>
<defs>
<font id="xerographyregular" horiz-adv-x="1139" >
<font-face units-per-em="2048" ascent="1638" descent="-410" />
<missing-glyph horiz-adv-x="569" />
<glyph horiz-adv-x="0" />
<glyph unicode="&#xd;" horiz-adv-x="569" />
<glyph unicode=" "  horiz-adv-x="569" />
<glyph unicode="&#x09;" horiz-adv-x="569" />
<glyph unicode="&#xa0;" horiz-adv-x="569" />
<glyph unicode="!" horiz-adv-x="495" d="M36 -363l25 2195l415 -4l-25 -2196zM136 303q-1 -67 75 -103l77 -1l51 25l1 51q-8 103 -88 104q-116 -24 -116 -63v-13zM164 572l38 -39h39q51 -1 118 267l-12 39l26 114l-12 13v13l13 13l-12 115l2 141l-63 52h-26q-73 1 -103 -75l12 -39l-14 -115l12 -64v-13l-13 -13 l10 -243v-38z" />
<glyph unicode="&#x22;" horiz-adv-x="80" />
<glyph unicode="#" horiz-adv-x="80" />
<glyph unicode="$" horiz-adv-x="80" />
<glyph unicode="%" horiz-adv-x="80" />
<glyph unicode="&#x26;" horiz-adv-x="80" />
<glyph unicode="'" horiz-adv-x="415" d="M40 -378v2196h335v-2196h-335zM124 874q47 -69 89 -69l66 23l-11 93l22 266q-8 35 -77 58l-34 -12q-55 0 -55 -220v-139z" />
<glyph unicode="(" horiz-adv-x="80" />
<glyph unicode=")" horiz-adv-x="80" />
<glyph unicode="*" horiz-adv-x="80" />
<glyph unicode="+" horiz-adv-x="80" />
<glyph unicode="," horiz-adv-x="80" />
<glyph unicode="-" horiz-adv-x="391" d="M-22 -386l90 2193l352 -14l-90 -2194zM123 665q88 -78 120 -56l10 8q54 39 38 122l-45 62l-51 27l-42 -30q-77 -68 -30 -133z" />
<glyph unicode="." horiz-adv-x="464" d="M18 1792l407 9l52 -2198l-407 -10zM137 196q50 -82 181 -33q95 53 37 173l-25 43l-104 37q-128 -71 -89 -220z" />
<glyph unicode="/" horiz-adv-x="80" />
<glyph unicode="0" horiz-adv-x="905" d="M-6 -337l93 2193l870 -37l-93 -2193zM57 602l12 -1q-8 -170 127 -281q180 -115 296 -120l69 9q295 113 310 466l-12 13l27 83l-19 109l12 -1l-10 48q-56 245 -205 333l-69 3l-117 -7l-22 25h-22q-148 -69 -204 -147q-106 -56 -173 -532zM208 607q31 -217 176 -223 q-1 -21 114 -41q201 114 210 315l12 12l-10 48l14 36q10 248 -136 353l-81 3q-188 8 -267 -288z" />
<glyph unicode="1" horiz-adv-x="631" d="M-7 1785l561 22l58 -1485q-36 36 -112 33l-38 -2l-40 358l23 398q-39 114 -158 109l-153 -6l-51 -41q2 -48 69 -112q116 4 119 -73l-8 -128l14 -37l-23 -78l18 -115l11 -282l-192 6q-28 -12 -40 -39zM54 235q62 -74 121 -72l38 14l205 -4q156 6 199 34l23 -594l-560 -22z " />
<glyph unicode="2" horiz-adv-x="855" d="M32 -361v2195h775v-2195h-775zM73 255q0 -28 115 -62q64 0 64 75l13 -13l102 13q186 -88 256 -88h51q103 66 103 138v37l-52 50h-64l-64 -37q-38 0 -166 75l-128 -13h-13q51 106 295 225l115 113l-13 12q19 107 64 150v88l13 62q0 63 -192 213q-218 -34 -218 -50 q-198 0 -281 -213q0 -125 102 -125q70 0 90 50q0 135 192 163h76q52 -19 52 -88v-50l-13 -75q0 -84 -333 -262q-128 -91 -166 -300v-88z" />
<glyph unicode="3" horiz-adv-x="916" d="M5 -398l70 2195l870 -28l-69 -2194zM77 1001q26 -78 100 -80l26 -1q65 33 67 113l115 -3q55 -2 168 46l51 -15v-13q-304 -294 -305 -323q70 -105 137 -107l77 -2l64 11q101 -71 111 -132q-6 -218 -250 -210l-50 15l-14 -13l1 13l-26 1q-57 2 -163 107l-51 2l-53 -49 l-1 -52q-6 -179 391 -191q118 9 206 44q184 145 188 263l-10 116q-97 246 -248 251q155 133 252 274l2 51q-52 75 -112 106l-38 1l-205 19q-65 -36 -129 -34l-13 1l-140 30l-76 2q-26 -6 -53 -62l-1 -13l12 -13z" />
<glyph unicode="4" horiz-adv-x="801" d="M8 1787l753 19l32 -1224q-40 26 -171 56l16 331l-12 36l8 141q-3 118 -102 115q-59 -1 -337 -398q-45 -35 -158 -188zM44 422l15 1l185 40l49 -10h13l12 11l136 -7h12l3 -130l-37 -1q-89 -2 -96 -97q77 -80 188 -77t184 87l-1 24q-26 46 -63 45l-4 142l74 2q52 1 81 36 l23 -876l-753 -20zM239 628q50 -22 137 -20l74 2l24 24l-1 36l-14 58l11 71l-4 142h-12z" />
<glyph unicode="5" horiz-adv-x="871" d="M7 -386l67 2194l823 -25l-66 -2194zM71 708q58 -112 157 -115l25 -1q46 85 286 78q115 -4 119 -139l-39 -96q-3 -102 -227 -141l-86 15q-93 101 -145 103h-13q-61 2 -75 -35l-1 -24q-4 -131 278 -217h12l75 22v-12q176 -6 287 101q91 148 95 267l-20 160 q-159 152 -230 154l-86 3q-87 2 -137 -21l-61 14l1 25l43 219l208 -44q262 39 263 66l1 50l-72 75l-62 2l-211 -18q1 27 -135 41l-12 -13l-49 27q-123 4 -128 -168l11 -37z" />
<glyph unicode="6" horiz-adv-x="825" d="M44 1762l745 18l28 -1184q-53 152 -325 175h-24q-221 -39 -220 -104h-12l-2 74q156 322 264 324l136 -32q61 1 73 37l-1 37q-22 123 -176 119l-49 -1q-86 -2 -134 -28q-228 -224 -280 -408zM75 465l59 -143q125 -128 126 -156h25l149 -33l158 28q192 106 229 269l20 -844 l-745 -18zM253 472q2 -80 127 -157l86 3q207 69 204 188q-29 85 -112 83l-74 -1q-55 -2 -231 -116z" />
<glyph unicode="7" horiz-adv-x="828" d="M14 -389l52 2195l753 -18l-14 -590q-40 24 -105 50l-331 -76l-25 1q-108 74 -144 75l-61 2q-25 -6 -50 -59l9 -108l-4 -168q29 -61 97 -63h12q46 23 62 71l-10 60v12l12 12l61 -14h24q52 -2 283 89h12l-127 -237q-166 -317 -248 -654l-1 -36q-1 -63 47 -85l73 -2l50 35 q22 144 40 143q4 156 183 499l136 245l-33 -1397z" />
<glyph unicode="8" horiz-adv-x="866" d="M40 1792l786 10l29 -2195l-786 -11l-10 749q35 -133 189 -214l91 2l81 -11l11 12l58 -12l46 13q179 78 181 143q102 86 100 248q-2 124 -106 234q67 83 65 271q-80 211 -244 209l-137 -26l-35 12l-90 -25q-170 -140 -169 -285q1 -70 70 -152q-90 -145 -113 -261zM221 448 q2 -176 116 -175l46 12l92 -10q171 81 169 202l-1 94q-58 81 -92 81q-298 -34 -298 -74q-34 -45 -32 -130zM260 895q1 -58 174 -103l46 1q108 75 146 201q-18 106 -139 104l-92 -1q-136 -78 -135 -202z" />
<glyph unicode="9" horiz-adv-x="836" d="M17 1835l766 21l23 -826q-4 10 -9 19q-288 250 -373 248l-23 -1l-11 -11l-1 11q-102 -35 -101 -61q-122 -38 -220 -312q15 -165 38 -164q3 -109 280 -168q274 30 274 54q5 -182 -279 -279l-69 11l-34 -13q0 21 -81 21q-37 -1 -79 -37v-12q3 -121 290 -133l47 12l170 75 l78 62q79 89 117 189l24 -878l-765 -22zM240 892q1 -50 49 -128l58 1l103 -8q228 68 225 171q-108 171 -235 205q-91 -38 -124 -86q-78 -87 -76 -155z" />
<glyph unicode=":" horiz-adv-x="80" />
<glyph unicode=";" horiz-adv-x="80" />
<glyph unicode="&#x3c;" horiz-adv-x="80" />
<glyph unicode="=" horiz-adv-x="80" />
<glyph unicode="&#x3e;" horiz-adv-x="80" />
<glyph unicode="?" horiz-adv-x="706" d="M13 1776l653 8l8 -650q-52 76 -197 100l-36 -1l-83 -13l-11 12l-12 -12q-235 -3 -313 -168zM25 883q18 -27 54 -54l60 1l46 62v36l-48 47q-1 73 212 124q180 -22 190 -58v-12q1 -103 -105 -183q-235 -99 -234 -159l1 -61q61 -180 156 -179l47 1l35 36l-1 61l-36 48v48 q212 99 276 248l16 -1299l-653 -9zM241 265q1 -103 108 -132q68 1 82 98q-1 75 -96 83h-36z" />
<glyph unicode="@" horiz-adv-x="1084" d="M40 -399v2196h1004v-2196h-1004z" />
<glyph unicode="A" horiz-adv-x="1084" d="M40 174q26 -13 66 -19l153 26q128 0 128 77q0 51 -89 102q64 80 64 128h25l192 38h64l51 -153q-64 -50 -64 -103v-12l39 -64h358l17 44v-608h-1004v544zM40 295v1531h1004v-1491q-34 23 -119 25q-47 0 -167 384q0 450 -192 525l-102 -26l-64 13h-13l-13 -13l-51 13 q-102 -64 -102 -102q45 -77 153 -77h26l-269 -691zM438 680v25q45 68 90 308q49 0 64 -269l-13 -13l26 -51l-103 -13z" />
<glyph unicode="B" horiz-adv-x="944" d="M-12 -382l20 571q35 -18 91 -33l140 7h12l176 -19l151 18h3q82 0 230 179l3 82l25 -1l1 24v12q0 108 -70 118l2 71l-24 36q104 94 110 267l-82 167q-87 29 -86 61q-113 36 -112 50l-51 -10l-61 14q-10 -33 -70 -33h-7l-25 1q-53 49 -250 56l-40 -56q10 -83 60 -85 l-9 -233l-14 -70l22 -423l-13 1l-1 -24l12 -12l-26 -46h-12l-13 13h-12q-32 1 -55 -4l53 1495l898 -32l-79 -2194zM261 783l25 -1l12 11l64 -14h12l50 10l13 -13h13h22q203 0 209 144l1 24q3 88 -122 132q-264 -7 -265 -25v-23h-13l12 -12l-15 -70l10 -70zM273 430 q8 -128 33 -129l76 -3q291 25 294 107l4 129q-86 85 -186 88l-203 -16h-12l-3 -93l9 -83h-12z" />
<glyph unicode="C" horiz-adv-x="924" d="M-17 1783l900 27l65 -2195l-900 -26zM101 768q14 -483 288 -587l353 10l-1 12q127 95 125 175v12l-50 47l-35 -1q-82 -88 -162 -90l-47 -2l-81 10l-12 -12h-6q-131 0 -177 188l-2 85l-15 134l-1 12q50 293 192 297v-12l46 13q153 -16 155 -80q4 -143 116 -143h5l24 1 q34 9 34 67v7l-6 219q-4 129 -127 129h-7l-34 -38l-176 8l-95 -16q-268 -8 -304 -445z" />
<glyph unicode="D" horiz-adv-x="972" d="M32 -366v2196h900v-2196h-900zM50 264q21 -49 84 -49h49l243 -25l206 37l12 -12h25q42 12 133 135q24 0 97 209v73l-12 50l12 49v197l-85 123q0 132 -400 221l-182 -12l-25 24l-12 -12h-12l-12 12h-61l-60 -61v-12q0 -80 121 -111l-12 -61l12 -87l-12 -36l36 -357 l-12 -123l12 -37l-12 -49h-85q-48 -18 -48 -86zM305 1100l48 12l97 -12q219 0 280 -283l-13 -49l13 -49l-13 -99l13 -36q-88 -222 -244 -222h-133l-12 86l24 74z" />
<glyph unicode="E" horiz-adv-x="945" d="M-14 -405l18 591q26 -26 64 -49l371 -12l255 -32h3q70 0 128 98l4 141q3 102 -124 119h-1q-50 0 -55 -152v-26l-141 17l-102 -9l-90 15l6 192l15 64l-13 13l64 10h13l88 -79h4q85 0 89 137q1 18 1 34q0 172 -59 173l-64 2q-27 1 -54 -113h-13q-84 3 -84 152v17l17 115v12 l38 12l13 -13l141 -4l153 8l-4 -153l49 -54l64 -1h1q51 0 57 216l-11 64q3 74 -100 105l-102 3l-38 -23l-39 1l1 25l-89 2l-40 -23h-25l-180 -7l-63 40h-5q-64 0 -86 -49l-1 -25l23 -77q55 -2 74 -93l-14 -50l19 -231h-13l-13 -12l8 -155l-5 -152l-14 -64l-89 3l-29 -28 l45 1499l906 -27l-65 -2194z" />
<glyph unicode="F" horiz-adv-x="970" d="M40 236l20 -48q0 -31 223 -62l75 25h156l25 86q0 87 -181 87h-12l12 86v111l-12 62l99 25q3 -87 62 -87q47 0 124 87v12q-37 247 -99 247h-37q-47 0 -50 -99h-99l-13 37l25 99l-12 49l12 111h25l273 -49v-148q22 -50 87 -50h24q63 0 63 272q0 148 -162 148h-49l-100 -25 l-236 25l-74 -25l-99 13q-45 0 -70 -41v588h890v-2195h-890v659zM40 272v858q19 -57 107 -90h12l13 12l25 -160l-25 -100l25 -98v-12l-13 -13l13 -12v-49l-13 -87l13 -13l-13 -12v-148l-37 -36q-88 0 -107 -40z" />
<glyph unicode="G" horiz-adv-x="1016" d="M-10 -385l58 2194l1003 -26l-57 -2195zM88 559v-12q0 -272 314 -381l249 -7q47 35 86 35h2q-1 -74 73 -76h3q84 0 87 109l1 49l-10 75q27 62 31 223l1 49q-15 113 -97 115l-174 -8l-100 2l-63 -35q-3 -127 146 -141l112 -3l12 -12l-15 -87q-3 -120 -278 -153 q-217 60 -217 255v11l14 74l-11 38v12l12 12l-11 12l53 161q63 191 257 191h10l37 -14q32 -1 183 -178l37 -1h4q96 0 100 146v9q0 105 -70 166q-88 -7 -89 -34l-210 67l-238 -43q-231 -230 -237 -465v-12l11 -75l-15 -62v-12z" />
<glyph unicode="H" horiz-adv-x="1084" d="M40 220q42 -32 203 -53l13 13l89 -13q103 26 103 52v25q-19 42 -154 115l13 192v90l154 -26l243 26q38 0 38 -166v-116q-96 -64 -115 -128l128 -76l141 25l13 -13h38q68 0 97 25v-591h-1004v619zM40 302v849q113 -89 113 -177v-154q0 -89 -25 -141v-12l13 -13l-13 -77 v-13l13 -77l-13 -140q-63 0 -88 -45zM40 1212v585h1004v-632q-23 78 -148 78l-64 -13l-103 13q-102 -13 -102 -52v-25q0 -90 128 -115v-64l-13 -192l-77 12l-243 -25l-89 13h-13l13 192l-13 51q16 41 141 89l-13 39q0 77 -256 77q-136 0 -152 -31zM896 679h13l25 320l-13 64 q0 20 123 62v-854q-42 50 -123 50v38l-12 116v12l12 13z" />
<glyph unicode="I" horiz-adv-x="585" d="M-17 1832l557 19l72 -2194l-557 -18l-20 619q38 -64 101 -64h6l57 16l116 -25q214 39 212 92l-1 43l-15 14q-116 39 -122 224l13 42l-32 113q18 1 25 100l-34 184l12 58l-3 85q142 33 141 75l-1 29q-2 46 -146 81l-158 -20h-14l-15 13q-157 -26 -155 -90l45 -69 q117 -50 118 -82l-11 -86l19 -155l-10 -115l38 -297l-27 -58l-14 14q-97 -3 -147 -77z" />
<glyph unicode="J" horiz-adv-x="829" d="M-9 -418l16 699q38 -149 361 -156l64 -2q233 65 241 407l-13 12l14 49v12l-12 12v12l13 12l-11 85l14 61l-20 242l142 58q2 78 -74 123l-90 2l-89 -10l-13 12l-13 1l-13 -12h-12l-13 12l-13 1l-13 -12l-89 14h-2q-56 0 -90 -71q-2 -109 152 -112l51 -2l12 -37l-15 -84 l16 -424q-5 -202 -190 -202h-7l-76 14q-43 195 -149 198q-39 -12 -59 -23l30 1303l811 -19l-49 -2194z" />
<glyph unicode="K" horiz-adv-x="920" d="M-8 1780l874 32l24 -628q-40 43 -291 72q-48 -2 -83 -65l2 -37l76 -84l-295 -311l-25 -1v12l11 51l-15 49l-4 112l9 112q91 75 93 116l-50 36l-122 -17l-49 10q-90 -8 -133 -43zM16 1143q26 -37 100 -67l-10 -87l7 -174q3 -87 30 -136q-23 -1 -23 -54v-9l29 -87l-23 -63 l30 -124l-11 -37l-96 -65zM50 210q11 -67 102 -67h11l37 2l72 15l62 -10l37 1q25 1 46 76l-37 36h-3q-84 0 -90 159l9 88q-2 64 82 116q130 -118 220 -305q-58 -20 -58 -84v-6q3 -65 211 -65q28 0 60 1q72 3 115 54l22 -602l-874 -33zM521 743l293 335q62 2 78 48l31 -840 q-117 32 -119 68q-63 57 -283 389z" />
<glyph unicode="L" horiz-adv-x="886" d="M-18 -343l45 1515l23 -36q102 -3 108 -229l-13 -12l-1 -13l13 -13l-28 -112q19 0 21 -113l-14 -50l22 -139l-16 -74q-103 -47 -104 -73v-12q-3 -88 163 -93l52 12l167 -5l64 10l38 -13l38 -2l13 12l-1 -12l26 -1h25q218 0 222 118v13l-11 37v17q0 171 -97 174l-51 2 l-13 -12q-1 -38 -27 -37l9 -113v-12h-32q-134 0 -212 -30l-101 27l15 100l-22 113l22 314l-11 50l13 12l1 13l-13 13h13l-12 37l15 50l130 71v13q-7 113 -176 118l-76 2h-21q-112 0 -159 -39l18 595l867 -25l-65 -2194z" />
<glyph unicode="M" horiz-adv-x="1041" d="M-5 -329l17 608q28 -46 123 -56l137 9l37 -14h14q147 0 149 82l1 13q1 52 -184 78l-27 357v12l13 12h-12l-13 12l30 171v12l-11 13l13 48h25l-1 -25q88 -428 184 -532q139 45 141 130q112 356 135 365l-3 -110l10 -63l-26 -35v-12l13 -12l-32 -209l12 -37l-14 -12v-12 l13 -13l-16 -84q-87 -38 -87 -59l-2 -49l72 -64l99 -3l14 12l-1 -12l12 -1h22q112 0 163 28l-16 -577zM15 353l23 810q27 -23 85 -44l-3 -74l12 -61l-14 -12v-12l13 -13l-15 -49l-8 -282l18 -232l-36 1h-3q-49 0 -72 -32zM41 1277l17 588l1004 -29l-16 -557q-21 7 -47 11 l-87 2l-87 -10l-13 13h-9q-108 0 -142 -94l11 -37q-48 -29 -133 -327h-13l-12 13q-35 222 -57 222q-17 246 -105 249l-137 -34l-150 5q-13 0 -24 -15zM892 594l13 36l-12 13l44 232v13l-11 12l18 220v12h13h12q41 0 72 6l-23 -811q-40 20 -121 35z" />
<glyph unicode="N" horiz-adv-x="987" d="M40 225q29 -26 93 -42l268 26q55 0 90 76q0 42 -64 77h-64v77l-13 13h13l-13 51v13l13 13l-13 51l13 51l-13 230v13l397 -627h77q0 38 51 64l-13 256v102l-13 13l26 64l-26 90l26 64q0 192 72 256v-1525h-907v594zM40 315v849q28 -54 131 -72v-90l13 -13h-13l13 -358 l-26 -294h-13l-12 12h-52q-24 -12 -41 -34zM40 1215v611h907v-620q-61 65 -238 65q-103 -19 -103 -51v-51q51 -77 115 -77l-25 -256v-39l-13 -12l13 -13v-77h-26q-150 240 -294 410q0 134 -115 166h-154z" />
<glyph unicode="O" horiz-adv-x="1025" d="M40 -419v2195h945v-2195h-945zM76 668q0 -362 243 -448q96 -64 166 -64h26l13 13l13 -13h12q144 0 269 102l128 320l-13 64l26 90q-22 0 -51 217l13 13l-39 115q-77 128 -230 167q-231 -10 -231 -51l-12 12q-74 -12 -77 -38q-256 -61 -256 -499zM242 591 q29 -269 269 -269h13q192 42 192 115q57 122 77 269q-36 346 -103 346l-205 38q-204 -134 -204 -205q-39 -102 -39 -192v-102z" />
<glyph unicode="P" horiz-adv-x="920" d="M-33 1765l836 57l148 -2190l-836 -56l-103 1519q14 -26 44 -44h8q75 0 87 -94l-11 -13l20 -295l13 -12l-12 -13l12 -174l13 -12l-12 -1l23 -159q-108 -47 -108 -69q0 -102 170 -113q225 31 222 73l-3 38q-28 49 -79 49q-12 0 -25 -3l-17 60l-8 112l9 63l-13 -1l-2 25 l9 62h12l14 -11l99 7l148 22q192 13 192 270q0 26 -2 54q-41 204 -87 204h-1q-6 93 -245 121l-298 -33l-113 5q-49 -20 -64 -38zM306 869l32 -85l-10 -51l1 -12l237 4q75 49 75 173q0 15 -1 30q-8 121 -110 142l-11 -13l-126 16q-86 -28 -84 -55l7 -99z" />
<glyph unicode="Q" horiz-adv-x="1025" d="M40 -420v2195h945v-2195h-945zM55 684q0 -185 36 -296q97 -183 266 -223h49v-25h36l73 -24l121 24h12q102 -185 181 -185h12q46 25 61 74q-109 179 -109 223v12q72 0 157 408l-24 74v12l12 12l-36 149q-149 284 -290 284h-122l-24 -25l-60 13h-13l-156 -87 q-182 -173 -182 -420zM200 486q45 -186 230 -186l97 -24h24l24 24v13q-85 50 -194 62l-48 61q0 75 85 112q145 -16 278 -136q85 200 85 260q0 275 -182 358l-48 12q-326 -34 -326 -309q-22 0 -25 -247z" />
<glyph unicode="R" horiz-adv-x="959" d="M40 204q35 -59 99 -59l128 26l90 -13q115 29 115 102q0 45 -141 77l13 128l-13 102l13 64l90 -102q243 -346 320 -346h25l77 26q0 109 -307 422q320 61 320 218q0 195 -38 256q0 112 -461 128h-154q-153 0 -153 -51v-13q0 -102 102 -102l-13 -103l13 -153l-13 -39 l13 -141v-166l-26 -115q-85 -29 -99 -89v1536h879v-2196h-879v603zM344 823q0 -25 90 -25v-13l13 13l38 -13q192 0 192 128v38q0 116 -320 116l-13 -13v-231z" />
<glyph unicode="S" horiz-adv-x="875" d="M-10 -337l42 2195l854 -16l-42 -2195zM49 1036l35 -142q147 -169 317 -173h13l13 13q216 -81 215 -120l-1 -76q-2 -77 -93 -139l-102 2q-93 1 -102 40q-83 181 -175 183l-91 -50v-40q0 -246 58 -268l26 -1l103 24l152 -42l39 12l115 -27h5q166 0 256 289l-11 64v13l13 13 l-12 13q2 124 -239 235q-332 45 -330 134q75 125 178 125h3l102 -41q83 -142 138 -143h3q130 0 130 254q0 60 -101 78h-13l-52 -50l-242 43h-7q-182 0 -343 -211v-12z" />
<glyph unicode="T" horiz-adv-x="870" d="M-9 1789l841 16l11 -597l-39 38l-204 -30l-168 35l-102 -2l-76 -26l-129 22q-63 -1 -123 -44zM8 890q26 -80 86 -80h1h25l39 27l-16 166l11 64l38 1l128 15l56 -242l-9 -167l13 -64l-23 -102l26 -64l-11 -51l1 -77l-77 -2q-64 -1 -76 -39l1 -64l52 -63l218 16l77 1 q102 20 101 54l-1 51q0 32 -129 62l11 115l-27 64l23 154l-2 128l-44 255l13 13l64 -11l141 2l2 -116q1 -68 53 -88l64 2l12 8l23 -1249l-840 -15z" />
<glyph unicode="U" horiz-adv-x="1030" d="M-14 -336l39 1455q73 -46 72 -83l-12 1l11 -38l-15 -102q27 -293 54 -386l-13 1q-3 -116 185 -236q77 -2 76 -40l256 -7q2 57 209 160q59 169 81 177l-22 91l12 12l11 409l100 85l-40 -1525zM29 1263l16 595l1003 -27l-16 -597q-15 24 -45 48l-256 -6h-13h-4 q-74 0 -101 -73q37 -91 126 -94l17 -333l-13 -13l11 -51l-57 -216q-104 -39 -143 -86l-13 13l-77 -11q-153 5 -232 404q26 -1 46 280h14q88 0 89 36l1 13q3 128 -215 134l-115 3z" />
<glyph unicode="V" horiz-adv-x="930" d="M40 -399v1483q24 -9 67 -9h25l12 -48q52 -395 134 -559q71 -304 159 -304q40 0 85 37l147 376q147 350 147 462l74 57v-1495h-850zM40 1198v598h850v-592q-58 42 -208 42h-74q-42 -22 -61 -73q0 -76 98 -110q-37 -209 -195 -571q-40 0 -172 596q110 12 110 48v37l-86 73 l-12 -12q-188 -5 -250 -36z" />
<glyph unicode="W" horiz-adv-x="1059" d="M15 -353v1493q6 -1 13 -1l98 -384q62 -528 111 -528h49q98 0 98 120l124 312h12q12 -162 62 -264q30 -192 160 -192l49 72q61 0 61 180l136 660h31v-1468h-1004zM15 1282v560h1004v-579q-56 19 -142 32q-120 -36 -123 -60v-36q0 -72 74 -96l-12 -72q-99 -375 -99 -504 q-31 0 -98 384l12 84q-71 60 -148 60q-24 -6 -49 -60v-12l12 -12l-12 -60l-123 -312h-25l12 12v24q-55 90 -98 480v12q123 18 123 48v24q0 45 -49 96l-136 -24z" />
<glyph unicode="X" horiz-adv-x="924" d="M-13 1783l883 25l17 -588q-59 20 -177 36l-86 -3l-60 -51q3 -91 65 -119l-153 -235q-152 177 -153 226q37 1 59 51l-1 48q-1 36 -209 42l-36 -13l-74 10q-39 -21 -57 -41zM6 1114q39 -47 82 -47h2q78 -52 281 -370v-12l-165 -236l-175 -172zM33 206q36 -50 146 -61 q158 31 206 67q-3 82 -71 82h-5l-1 24l165 224l12 1l128 -192v-12q-131 -22 -131 -87q0 -75 136 -83l86 3l13 12l12 -11l85 2q52 2 102 28l18 -588l-883 -26zM603 692q125 244 247 398q23 6 40 12l24 -822q-25 28 -79 30q-1 60 -231 358z" />
<glyph unicode="Y" horiz-adv-x="863" d="M40 -415v1430q72 -52 157 -209q212 -232 212 -285l-13 -111l13 -37l-13 -63h-50q-112 0 -112 -61q22 -112 99 -112l200 13h88l61 61v25q-2 25 -124 99v199l-13 86l38 38q162 284 162 396h78v-1469h-783zM40 1199v581h783v-584q-128 17 -128 43q-162 -18 -162 -61v-25 q0 -66 50 -87l-125 -310h-13q-92 87 -199 273q122 37 163 74q0 50 -76 99h-87l-49 12q-92 0 -157 -15z" />
<glyph unicode="Z" horiz-adv-x="811" d="M-24 -383l25 622q36 -58 381 -72l236 15l94 -4v12q32 11 54 25l-25 -628zM4 328l59 1482l765 -30l-51 -1298q-27 41 -99 44h-2q-42 0 -48 -93q-4 -91 -102 -91h-8l-11 13q-46 -17 -151 -17q-29 0 -62 1l-46 2q174 222 175 267q80 90 125 198q220 186 225 303l1 36 q-21 84 -209 91l-12 -12l-12 13l-140 5l-107 -7l-81 15l-59 2h-6q-83 0 -92 -103l10 -36l-14 -48l-1 -36q-3 -68 77 -111l23 -1h6q54 0 68 33l-10 49q3 75 63 105l70 -3l71 10l59 -15l82 -3q-3 -60 -100 -152l-151 -221q-157 -263 -305 -392z" />
<glyph unicode="[" horiz-adv-x="569" />
<glyph unicode="\" horiz-adv-x="569" />
<glyph unicode="]" horiz-adv-x="569" />
<glyph unicode="^" horiz-adv-x="961" />
<glyph unicode="_" horiz-adv-x="569" />
<glyph unicode="`" horiz-adv-x="682" />
<glyph unicode="a" horiz-adv-x="1036" d="M-24 1776l1003 40l60 -1489q-32 20 -112 20h-8q-47 -2 -182 377q-18 449 -213 517l-101 -31l-64 11l-13 -1l-13 -13l-51 11q-100 -68 -98 -106q46 -71 145 -71h11l26 1l-241 -701l-87 -95zM43 125q26 -11 66 -16l152 32q125 5 125 79q0 53 -93 101q61 83 59 131l25 1 l190 46l64 2l57 -151q-62 -52 -60 -105l1 -12l41 -62l358 14l15 45l25 -607l-1003 -41zM419 672q42 69 77 311h1q48 0 74 -266l-12 -13l28 -50l-102 -17l-65 10z" />
<glyph unicode="b" horiz-adv-x="978" d="M36 215q36 -17 92 -30l139 12h12l177 -12l150 23q82 0 227 187v82h25v24q0 120 -75 128v71l-26 35q101 97 101 270l-88 164q-88 26 -88 58q-114 32 -114 46l-50 -11l-62 11q-10 -35 -76 -35h-25q-54 47 -252 47l-38 -58q13 -82 63 -82v-234l-12 -70l37 -422h-13v-24 l13 -11l-25 -47h-12l-13 12h-12q-32 0 -55 -7v1497h898v-2196h-898v572zM267 817h25l12 12l64 -12h12l50 12l13 -12h13q226 0 226 152v24q0 88 -126 128q-264 -17 -264 -35v-23h-13l13 -12l-13 -70l13 -70zM292 465q12 -128 37 -128h76q290 35 290 117v129q-89 82 -189 82 l-202 -24h-12v-93l12 -83h-12z" />
<glyph unicode="c" horiz-adv-x="889" d="M-51 -383l74 2195l900 -31l-75 -2194zM77 791q-1 -29 -1 -57q0 -434 250 -547l353 -12l1 12q133 86 135 166l1 12l-47 50l-35 1q-84 -79 -161 -79h-6l-47 1l-81 15l-12 -11q-136 4 -171 199l3 85l-6 135v12q67 284 205 284h5l-1 -12l47 10q150 -26 150 -88v-14 q0 -134 112 -138l24 -1q36 8 38 72l8 219v8q0 125 -126 129l-36 -35l-175 18l-96 -9h-11q-258 0 -320 -425z" />
<glyph unicode="d" horiz-adv-x="965" d="M-21 -334l103 2193l899 -42l-103 -2193zM27 294q18 -50 81 -53l49 -3l242 -36l207 28l12 -13l25 -1q42 10 139 128q24 -1 107 205l3 73l-10 50l15 48l9 197l-79 127q6 132 -390 240l-182 -4l-24 25l-12 -11h-12l-12 13l-61 3l-63 -58v-12v-5q0 -76 116 -112l-15 -60 l8 -88l-14 -35l19 -358l-17 -123l10 -37l-14 -49l-85 4q-49 -15 -52 -83zM320 1117l49 10l96 -17q219 -10 267 -296l-15 -48l10 -50l-17 -98l11 -36q-95 -211 -244 -211h-10l-133 6l-8 87l27 73z" />
<glyph unicode="e" horiz-adv-x="957" d="M0 1751l906 40l96 -2193l-906 -39l-26 590q28 -24 68 -44l371 16l257 -14q72 3 123 108l-6 140q-4 102 -133 110q-45 -3 -45 -120q0 -16 1 -35l1 -26l-141 6l-102 -17l-90 9l-9 192l11 64l-14 13l63 15h13l94 -72q83 4 83 124q0 9 -1 20q-9 202 -71 202h-2l-63 -3 q-27 -1 -46 -117l-13 -1h-3q-86 0 -94 162l8 117v12l37 14l14 -12l141 6l152 20l7 -153l53 -50l64 3q44 2 44 155q0 30 -2 65l-16 64q-3 74 -107 97l-102 -4l-37 -27l-39 -2l-1 25l-89 -4l-38 -26l-25 -2l-179 -20l-65 35q-68 -3 -87 -55l1 -25l28 -76h2q53 0 79 -86 l-11 -52l37 -229h-13l-13 -14l20 -153l7 -153l-11 -64l-89 -4l-26 -30z" />
<glyph unicode="f" horiz-adv-x="936" d="M10 -413l21 659l18 -49q-1 -31 221 -69l76 22l156 -5l28 86q2 86 -179 92l-12 1l15 85l4 111l-11 62l100 22q0 -87 59 -89h1q47 0 126 83l1 12q-30 248 -92 250l-37 2h-1q-46 0 -52 -98l-99 3l-12 38l29 98l-11 49l16 111l25 -1l271 -58l-5 -147q21 -51 86 -53l24 -1h1 q62 0 70 270v9q0 139 -157 144l-49 2l-101 -22l-235 32l-75 -23l-98 17h-2q-44 0 -69 -38l18 586l890 -28l-69 -2193zM32 282l27 858q17 -58 104 -95h12l13 12l20 -161l-28 -99l22 -99v-12l-14 -13l13 -12l-2 -49l-15 -86l12 -14l-13 -11l-5 -148l-38 -35h-12q-77 0 -96 -36 z" />
<glyph unicode="g" horiz-adv-x="1084" d="M36 -358v2196h1004v-2196h-1004zM109 589q0 -283 324 -385h250q46 37 87 37q0 -74 74 -74q88 0 88 111v50l-12 74q24 63 24 223v50q-18 112 -100 112l-174 -13h-99l-63 -37q0 -127 150 -136h112l12 -12l-12 -88q0 -120 -274 -160q-224 56 -224 260l12 74l-12 38v12l12 12 l-12 12l49 162q59 198 262 198l37 -12q32 0 188 -174h36q100 0 100 149q0 112 -74 173q-88 -9 -88 -36l-211 61l-238 -49q-224 -236 -224 -472v-12l13 -74l-13 -62v-12z" />
<glyph unicode="h" horiz-adv-x="1074" d="M-5 1775l1003 42l27 -631q-24 71 -133 71h-18l-64 -15l-103 8q-102 -17 -100 -56l1 -25q4 -90 133 -109l2 -64l-4 -193l-78 9l-242 -35l-89 9h-13l5 192l-15 50q14 42 137 95l-15 39q-3 67 -199 67q-28 0 -60 -1q-136 -6 -150 -37zM22 1130q117 -84 121 -173l6 -154 q1 -13 1 -25q0 -71 -20 -116l1 -12l13 -13l-10 -77l1 -13l16 -77l-7 -140q-63 -3 -86 -49zM61 199q44 -30 206 -44l12 13l89 -9q102 30 101 56l-1 25q-21 42 -159 109l5 192l-4 90l155 -19l242 36q38 1 45 -164l5 -116q-93 -68 -110 -133l132 -71l139 31l14 -12l38 2 q68 2 96 28l25 -589l-1003 -43zM897 694h13l12 321l-16 64q-1 19 120 67l36 -854q-41 45 -113 45h-12l-1 38l-17 116l-1 12l12 13z" />
<glyph unicode="i" horiz-adv-x="607" d="M6 -413l19 618q36 -68 103 -70l58 12l115 -32q215 26 217 79l1 43l-13 14q-108 45 -108 213v18l15 42l-24 115q18 -1 31 98l-22 186l15 56l3 85q144 25 145 67l1 29q1 46 -140 89l-159 -9h-14l-14 15q-159 -16 -161 -80l41 -73q113 -57 112 -89l-16 -85l9 -156l-18 -113 l20 -299l-31 -56l-13 14h-8q-91 0 -143 -67l47 1529l557 -17l-68 -2194z" />
<glyph unicode="j" horiz-adv-x="846" d="M-15 1815l811 34l93 -2192l-811 -35l-30 699q44 -133 317 -133q26 0 54 1l64 2q214 75 214 381q0 20 -1 41l-13 11l11 50l-1 12l-13 11l-1 12l13 13l-17 84l11 62l-37 240l139 67q-4 78 -82 118l-90 -4l-89 -16l-13 12l-13 -1l-13 -12l-12 -1l-13 12l-13 -1l-13 -13 l-89 9q-58 -3 -87 -77q5 -102 141 -102h18l51 2l14 -37l-9 -84l43 -423v-16q0 -190 -184 -198l-76 9q-55 187 -157 187h-5q-38 -13 -57 -26z" />
<glyph unicode="k" horiz-adv-x="955" d="M36 210q10 -71 110 -71h37l73 13l61 -13h37q25 0 49 74l-36 38q-87 0 -87 162l13 88q0 64 86 112q125 -122 208 -312q-61 -19 -61 -88q0 -74 269 -74q72 0 116 49v-603h-875v625zM36 240v904q25 -38 98 -71l-13 -87v-174q0 -87 25 -137q-25 0 -25 -62l25 -88l-25 -62 l25 -125l-12 -37zM36 1196v585h875v-629q-38 44 -288 83q-48 0 -85 -62v-37l73 -87l-306 -300h-25v12l13 51l-13 49v112l13 112q94 72 98 112l-49 38l-123 -12l-48 12q-90 -5 -135 -39zM526 725l305 324q62 0 80 45v-841q-116 37 -116 73q-61 59 -269 399z" />
<glyph unicode="l" horiz-adv-x="906" d="M-10 1815l866 36l92 -2192l-866 -37l-64 1515l26 -35h4q98 0 120 -221l-12 -12v-13l14 -12l-20 -113q19 0 29 -112l-11 -51l32 -137l-10 -75q-99 -54 -98 -80v-12q4 -82 146 -82q11 0 24 1l50 15l167 7l63 15l39 -11l39 2l11 12l1 -12l26 1q237 11 237 130v6v13l-15 36 q-8 184 -105 184h-4l-51 -3l-13 -12q2 -38 -24 -39l17 -113l1 -12q-157 -6 -241 -47l-103 20l8 100l-30 112v314l-15 50l12 12v13l-14 13h13l-15 37l11 50l125 81l-1 13q-13 105 -165 105h-19l-76 -3q-128 -6 -176 -52z" />
<glyph unicode="m" horiz-adv-x="1067" d="M19 -406l16 608q28 -45 123 -55l137 10l37 -14h17q143 0 146 81v13q1 52 -184 78l-28 357l1 12l12 12h-12l-13 12l30 172v12l-11 12l13 49l25 -1l-1 -25q89 -428 185 -531q139 45 141 130q111 356 134 365l-3 -110l11 -62l-26 -36v-12l12 -12l-31 -208l12 -38l-13 -11 l-1 -12l13 -14l-15 -84q-87 -38 -88 -59l-1 -49l72 -64l99 -3l13 12v-12h12h28q107 0 157 28l-15 -577zM37 277l21 809q28 -22 85 -43l-2 -74l12 -61l-14 -12v-12l13 -13l-15 -49l-7 -282l19 -233l-37 1h-6q-46 0 -69 -31zM61 1201l16 588l1003 -27l-14 -557q-21 7 -47 11 l-87 2l-87 -11l-13 14h-7q-109 0 -143 -95l11 -37q-48 -29 -133 -327h-13l-12 12q-35 222 -57 223q-17 246 -105 248l-137 -34l-150 4q-13 1 -25 -14zM914 519l13 37l-12 12l43 232v13l-11 13l18 219v13h13h12q41 0 72 6l-21 -811q-40 20 -121 34z" />
<glyph unicode="n" horiz-adv-x="1011" d="M-15 1734l904 70l48 -618q-54 49 -179 49q-29 0 -63 -3q-101 -27 -99 -59l4 -51q54 -68 114 -68h7l-5 -257l3 -39l-12 -13l14 -11l5 -77l-25 -2q-169 227 -325 386q-11 133 -128 156l-153 -12l-63 -60zM36 1073q32 -51 136 -61l7 -90l14 -12l-13 -1l41 -356l-3 -295 l-13 -1l-13 11l-52 -4q-23 -14 -38 -37zM109 137q30 -23 96 -34l265 46q55 5 84 83q-3 42 -70 72l-64 -5l-6 77l-14 12l13 1l-17 50l-1 13l12 14l-17 49l9 52l-30 229l-1 12l444 -594l77 6q-3 38 46 68l-33 254l-8 102l-14 12l21 65l-33 88l21 66q-3 35 -3 66q0 138 55 194 l118 -1520l-904 -70z" />
<glyph unicode="o" horiz-adv-x="998" d="M13 -388l46 2195l945 -20l-46 -2195zM72 698v-23q0 -341 233 -430q95 -66 165 -67l26 -1l13 13l13 -13l12 -1h8q139 0 263 97l135 317l-12 65l28 89q-23 0 -47 218l13 13l-36 116q-74 129 -227 171q-230 -5 -231 -46l-13 13q-73 -12 -77 -37q-257 -56 -266 -494zM236 618 q24 -269 263 -274l13 -1q193 38 195 111q60 121 82 268q-28 346 -95 347l-204 43q-208 -130 -209 -201q-41 -101 -43 -191z" />
<glyph unicode="p" horiz-adv-x="918" d="M58 -486v1523q12 -27 41 -47q82 0 88 -100l-12 -12v-296l12 -13l-12 -12v-174l12 -13h-12l12 -160q-112 -40 -112 -62q0 -102 162 -124q226 16 226 58v38q-27 54 -84 54q-8 0 -17 -1l-13 61v112l13 62h-13v25l13 61h12l13 -12h99l149 12q212 0 212 310q-28 210 -74 210 q0 93 -237 137l-299 -13l-113 13q-50 -17 -66 -33v591h838v-2195h-838zM336 792l26 -87l-13 -50v-12l237 -13q87 50 87 199q0 121 -100 149l-12 -13l-125 25q-87 -22 -87 -50v-98z" />
<glyph unicode="q" horiz-adv-x="981" d="M-4 -381l80 2194l944 -34l-80 -2194zM51 721q-1 -33 -1 -64q0 -140 26 -233q90 -186 259 -232l48 -1l-1 -25l36 -1l72 -28l122 20h12q95 -189 175 -192h12q46 23 63 72q-103 183 -101 226v12h1q73 0 171 402l-21 75v12l13 12l-31 150q-138 289 -280 294l-121 4l-25 -23 l-60 15h-12l-160 -81q-188 -167 -197 -414zM189 519q38 -187 223 -194l96 -28l24 -1l25 24v12q-83 53 -191 69l-46 63q3 75 89 108q144 -20 273 -146q92 198 94 257q1 15 1 29q0 251 -170 336l-47 14q-328 -22 -338 -297q-21 1 -33 -246z" />
<glyph unicode="r" horiz-adv-x="921" d="M-11 -343l24 601q32 -60 96 -62l129 21l90 -17q118 25 118 99q0 44 -137 81l18 127l-9 103l15 63l86 -105q229 -355 306 -358l25 -1l78 23q4 109 -290 433q322 49 328 206q1 35 1 67q0 140 -29 190q5 112 -455 146l-154 6q-16 1 -31 1q-123 0 -124 -46l-1 -13v-8 q0 -95 98 -98l-17 -102l7 -154l-14 -38l7 -142l-6 -166l-31 -113q-85 -26 -102 -85l60 1534l878 -34l-86 -2194zM341 866q-1 -26 88 -29v-13l13 12l38 -14h22q170 0 175 120l1 38q5 116 -315 128l-13 -12z" />
<glyph unicode="s" horiz-adv-x="889" d="M-5 1768l854 22l56 -2195l-854 -22zM48 947l42 -140q150 -158 316 -158h8h13l12 14q220 -72 221 -110l2 -77q2 -77 -86 -143l-103 -3h-9q-84 0 -94 36q-90 175 -182 175h-2l-88 -54q7 -284 72 -305l25 1l102 28l155 -35l38 14l116 -23q169 5 248 301l-14 64l-1 13l13 13 l-13 12q-4 125 -249 224q-334 30 -336 120q70 130 176 132l103 -35q89 -138 143 -138h1q122 4 122 238v22q-2 60 -105 74l-12 -1l-50 -52l-244 32q-186 -5 -340 -226v-13z" />
<glyph unicode="t" horiz-adv-x="921" d="M23 -361v1296q25 -81 86 -81h25l39 26l-13 166l13 64h38l128 13l51 -243l-12 -167l12 -64l-25 -102l25 -64l-12 -51v-77h-77q-64 0 -77 -38v-64l51 -64l218 12h77q102 18 102 52v51q0 32 -128 64l13 115l-26 64l26 154v128l-39 256l13 12l64 -12h141v-116q0 -68 51 -89 h64l13 8v-1249h-841zM23 1247v588h841v-596l-38 38l-205 -26l-167 38h-102l-77 -25l-128 25q-63 0 -124 -42z" />
<glyph unicode="u" horiz-adv-x="1046" d="M2 1784l1004 23l14 -597q-17 24 -47 45l-256 -19h-13q-77 -2 -101 -78q40 -87 126 -87h4l33 -332l-12 -14l14 -50l-46 -219q-102 -44 -139 -93l-13 13l-77 -15h-2q-151 0 -250 391q26 1 32 282q102 3 102 42l-1 13q-3 122 -205 122h-16l-115 -2l-22 -20zM19 1045 q75 -43 76 -79h-12l13 -38l-10 -102q42 -291 73 -383h-13q3 -116 197 -226h4q73 0 74 -37l256 6q-1 57 200 171q51 171 73 181l-27 89l12 13l-10 409l96 90l36 -1526l-1004 -23z" />
<glyph unicode="v" horiz-adv-x="896" d="M6 1782l850 27l18 -592q-52 36 -177 36q-16 0 -32 -1l-74 -2q-42 -23 -59 -75q2 -76 101 -107q-30 -210 -177 -576q-40 -2 -190 590q109 15 108 51l-1 37l-88 71l-12 -13q-188 -10 -249 -43zM28 1070q19 -6 51 -6h16l25 1l14 -48q64 -393 151 -555q79 -299 167 -299h1 q40 2 84 40l135 380q136 355 133 467l72 59l46 -1494l-849 -26z" />
<glyph unicode="w" horiz-adv-x="1054" d="M10 -388l30 1493q6 -1 13 -1l90 -386q52 -529 101 -530l49 -1h3q95 0 97 118l130 309h12q9 -162 57 -265q26 -193 156 -195l51 71h1q60 0 63 178l149 657h31l-29 -1468zM43 1247l11 560l1004 -20l-12 -579q-55 19 -141 35q-121 -34 -124 -58l-1 -36q-1 -72 72 -97 l-13 -72q-107 -373 -109 -502q-31 1 -91 386l14 84q-70 61 -147 63q-24 -6 -50 -59v-12l12 -13l-14 -59l-129 -310l-25 1l12 11l1 24q-53 92 -88 482v12q123 16 124 46v24q1 45 -47 97l-136 -21z" />
<glyph unicode="x" horiz-adv-x="927" d="M4 -353l11 618q34 -52 143 -69q159 25 209 58q1 85 -73 86l1 24l175 216h12l119 -197v-12q-136 -16 -136 -84q0 -72 133 -86l86 -2l13 12l12 -12l85 -2h4q50 0 99 24l-10 -589zM16 336l15 837q37 -50 81 -51q76 -56 263 -382v-12l-176 -228zM32 1230l10 612l883 -16 l-10 -588q-58 23 -175 43l-86 2l-62 -48v-6q0 -86 59 -116l-163 -228q-144 184 -143 233q37 0 62 48l1 48q0 36 -208 52l-36 -12l-74 14q-39 -19 -58 -38zM607 700v24q136 237 265 385q23 5 41 11l-14 -823q-24 29 -78 34q1 60 -214 369z" />
<glyph unicode="y" horiz-adv-x="842" d="M19 1789l783 15l11 -584q-128 14 -129 41q-161 -21 -160 -64v-25q1 -66 52 -86l-119 -313h-13q-94 85 -205 269q122 40 162 77q-1 50 -78 98l-87 -2l-49 11q-92 -1 -157 -18zM34 1024q72 -50 161 -206q216 -227 217 -280l-11 -112l14 -36l-12 -64l-50 -1 q-112 -2 -111 -63q25 -110 101 -110h1l199 17l88 2l60 62v25q-3 25 -126 97l-4 198l-15 86l38 39q156 287 154 399l78 1l28 -1469l-783 -15z" />
<glyph unicode="z" horiz-adv-x="813" d="M7 1829l766 17l29 -1298q-28 37 -94 37h-7q-44 -1 -44 -96q2 -95 -104 -97l-12 12q-58 -26 -212 -29l-46 -1q160 233 159 278q74 94 112 205q208 199 205 316l-1 36q-25 78 -197 78h-17l-11 -12l-13 12l-141 -4l-105 -14l-82 10l-59 -1q-89 -2 -92 -109l13 -36l-11 -48 l1 -36q1 -68 84 -106h23q60 1 71 38l-13 47q-1 75 57 110l70 1l70 14l60 -11l82 2q1 -60 -91 -158l-137 -230q-140 -272 -279 -410zM43 257q35 -49 304 -49q38 0 81 1l234 29l94 3v12q32 12 52 28l15 -629l-766 -17z" />
<glyph unicode="{" horiz-adv-x="684" />
<glyph unicode="|" horiz-adv-x="532" />
<glyph unicode="}" horiz-adv-x="684" />
<glyph unicode="~" horiz-adv-x="1196" />
<glyph unicode="&#xa1;" horiz-adv-x="682" />
<glyph unicode="&#xa2;" />
<glyph unicode="&#xa3;" />
<glyph unicode="&#xa4;" />
<glyph unicode="&#xa5;" />
<glyph unicode="&#xa6;" horiz-adv-x="532" />
<glyph unicode="&#xa7;" />
<glyph unicode="&#xa8;" horiz-adv-x="682" />
<glyph unicode="&#xa9;" horiz-adv-x="1509" />
<glyph unicode="&#xaa;" horiz-adv-x="758" />
<glyph unicode="&#xab;" />
<glyph unicode="&#xac;" horiz-adv-x="1196" />
<glyph unicode="&#xad;" horiz-adv-x="391" d="M-22 -386l90 2193l352 -14l-90 -2194zM123 665q88 -78 120 -56l10 8q54 39 38 122l-45 62l-51 27l-42 -30q-77 -68 -30 -133z" />
<glyph unicode="&#xae;" horiz-adv-x="1509" />
<glyph unicode="&#xaf;" horiz-adv-x="1131" />
<glyph unicode="&#xb0;" horiz-adv-x="819" />
<glyph unicode="&#xb1;" horiz-adv-x="1124" />
<glyph unicode="&#xb2;" horiz-adv-x="682" />
<glyph unicode="&#xb3;" horiz-adv-x="682" />
<glyph unicode="&#xb4;" horiz-adv-x="682" />
<glyph unicode="&#xb5;" horiz-adv-x="1180" />
<glyph unicode="&#xb6;" horiz-adv-x="1100" />
<glyph unicode="&#xb7;" horiz-adv-x="569" />
<glyph unicode="&#xb8;" horiz-adv-x="682" />
<glyph unicode="&#xb9;" horiz-adv-x="682" />
<glyph unicode="&#xba;" horiz-adv-x="748" />
<glyph unicode="&#xbb;" />
<glyph unicode="&#xbc;" horiz-adv-x="1708" />
<glyph unicode="&#xbd;" horiz-adv-x="1708" />
<glyph unicode="&#xbe;" horiz-adv-x="1708" />
<glyph unicode="&#xbf;" horiz-adv-x="1251" />
<glyph unicode="&#xc0;" horiz-adv-x="1366" />
<glyph unicode="&#xc1;" horiz-adv-x="1366" />
<glyph unicode="&#xc2;" horiz-adv-x="1366" />
<glyph unicode="&#xc3;" horiz-adv-x="1366" />
<glyph unicode="&#xc4;" horiz-adv-x="1366" />
<glyph unicode="&#xc5;" horiz-adv-x="1366" />
<glyph unicode="&#xc6;" horiz-adv-x="2048" />
<glyph unicode="&#xc7;" horiz-adv-x="1479" />
<glyph unicode="&#xc8;" horiz-adv-x="1366" />
<glyph unicode="&#xc9;" horiz-adv-x="1366" />
<glyph unicode="&#xca;" horiz-adv-x="1366" />
<glyph unicode="&#xcb;" horiz-adv-x="1366" />
<glyph unicode="&#xcc;" horiz-adv-x="569" />
<glyph unicode="&#xcd;" horiz-adv-x="569" />
<glyph unicode="&#xce;" horiz-adv-x="569" />
<glyph unicode="&#xcf;" horiz-adv-x="569" />
<glyph unicode="&#xd0;" horiz-adv-x="1479" />
<glyph unicode="&#xd1;" horiz-adv-x="1479" />
<glyph unicode="&#xd2;" horiz-adv-x="1593" />
<glyph unicode="&#xd3;" horiz-adv-x="1593" />
<glyph unicode="&#xd4;" horiz-adv-x="1593" />
<glyph unicode="&#xd5;" horiz-adv-x="1593" />
<glyph unicode="&#xd6;" horiz-adv-x="1593" />
<glyph unicode="&#xd7;" horiz-adv-x="1196" />
<glyph unicode="&#xd8;" horiz-adv-x="1593" />
<glyph unicode="&#xd9;" horiz-adv-x="1479" />
<glyph unicode="&#xda;" horiz-adv-x="1479" />
<glyph unicode="&#xdb;" horiz-adv-x="1479" />
<glyph unicode="&#xdc;" horiz-adv-x="1479" />
<glyph unicode="&#xdd;" horiz-adv-x="1366" />
<glyph unicode="&#xde;" horiz-adv-x="1366" />
<glyph unicode="&#xdf;" horiz-adv-x="1251" />
<glyph unicode="&#xe0;" />
<glyph unicode="&#xe1;" />
<glyph unicode="&#xe2;" />
<glyph unicode="&#xe3;" />
<glyph unicode="&#xe4;" />
<glyph unicode="&#xe5;" />
<glyph unicode="&#xe6;" horiz-adv-x="1821" />
<glyph unicode="&#xe7;" horiz-adv-x="1024" />
<glyph unicode="&#xe8;" />
<glyph unicode="&#xe9;" />
<glyph unicode="&#xea;" />
<glyph unicode="&#xeb;" />
<glyph unicode="&#xec;" horiz-adv-x="569" />
<glyph unicode="&#xed;" horiz-adv-x="569" />
<glyph unicode="&#xee;" horiz-adv-x="569" />
<glyph unicode="&#xef;" horiz-adv-x="569" />
<glyph unicode="&#xf0;" />
<glyph unicode="&#xf1;" />
<glyph unicode="&#xf2;" />
<glyph unicode="&#xf3;" />
<glyph unicode="&#xf4;" />
<glyph unicode="&#xf5;" />
<glyph unicode="&#xf6;" />
<glyph unicode="&#xf7;" horiz-adv-x="1124" />
<glyph unicode="&#xf8;" horiz-adv-x="1251" />
<glyph unicode="&#xf9;" />
<glyph unicode="&#xfa;" />
<glyph unicode="&#xfb;" />
<glyph unicode="&#xfc;" />
<glyph unicode="&#xfd;" horiz-adv-x="1024" />
<glyph unicode="&#xfe;" />
<glyph unicode="&#xff;" horiz-adv-x="1024" />
<glyph unicode="&#x152;" horiz-adv-x="2048" />
<glyph unicode="&#x153;" horiz-adv-x="1933" />
<glyph unicode="&#x178;" horiz-adv-x="1366" />
<glyph unicode="&#x2c6;" horiz-adv-x="682" />
<glyph unicode="&#x2dc;" horiz-adv-x="682" />
<glyph unicode="&#x2000;" horiz-adv-x="932" />
<glyph unicode="&#x2001;" horiz-adv-x="1865" />
<glyph unicode="&#x2002;" horiz-adv-x="932" />
<glyph unicode="&#x2003;" horiz-adv-x="1865" />
<glyph unicode="&#x2004;" horiz-adv-x="621" />
<glyph unicode="&#x2005;" horiz-adv-x="466" />
<glyph unicode="&#x2006;" horiz-adv-x="310" />
<glyph unicode="&#x2007;" horiz-adv-x="310" />
<glyph unicode="&#x2008;" horiz-adv-x="233" />
<glyph unicode="&#x2009;" horiz-adv-x="373" />
<glyph unicode="&#x200a;" horiz-adv-x="103" />
<glyph unicode="&#x2010;" horiz-adv-x="391" d="M-22 -386l90 2193l352 -14l-90 -2194zM123 665q88 -78 120 -56l10 8q54 39 38 122l-45 62l-51 27l-42 -30q-77 -68 -30 -133z" />
<glyph unicode="&#x2011;" horiz-adv-x="391" d="M-22 -386l90 2193l352 -14l-90 -2194zM123 665q88 -78 120 -56l10 8q54 39 38 122l-45 62l-51 27l-42 -30q-77 -68 -30 -133z" />
<glyph unicode="&#x2012;" horiz-adv-x="391" d="M-22 -386l90 2193l352 -14l-90 -2194zM123 665q88 -78 120 -56l10 8q54 39 38 122l-45 62l-51 27l-42 -30q-77 -68 -30 -133z" />
<glyph unicode="&#x2013;" />
<glyph unicode="&#x2014;" horiz-adv-x="2048" />
<glyph unicode="&#x2018;" horiz-adv-x="455" />
<glyph unicode="&#x2019;" horiz-adv-x="455" />
<glyph unicode="&#x201a;" horiz-adv-x="455" />
<glyph unicode="&#x201c;" horiz-adv-x="682" />
<glyph unicode="&#x201d;" horiz-adv-x="682" />
<glyph unicode="&#x201e;" horiz-adv-x="682" />
<glyph unicode="&#x2022;" horiz-adv-x="717" />
<glyph unicode="&#x2026;" horiz-adv-x="2048" />
<glyph unicode="&#x202f;" horiz-adv-x="373" />
<glyph unicode="&#x2039;" horiz-adv-x="682" />
<glyph unicode="&#x203a;" horiz-adv-x="682" />
<glyph unicode="&#x205f;" horiz-adv-x="466" />
<glyph unicode="&#x20ac;" />
<glyph unicode="&#x2122;" horiz-adv-x="2048" />
<glyph unicode="&#x25fc;" horiz-adv-x="1840" d="M0 0v1840h1840v-1840h-1840z" />
</font>
</defs>
</svg>
